<svg width="961" height="177" viewBox="0 0 961 177" fill="none" xmlns="http://www.w3.org/2000/svg">
<rect width="861" height="177" fill="#BBAF8F"/>
<rect x="861" width="99" height="16" fill="#BBAF8F"/>
<rect x="861" y="161" width="99" height="16" fill="#BBAF8F"/>
<rect x="834" y="118.186" width="161.683" height="11" transform="rotate(-42.9602 834 118.186)" fill="#BBAF8F"/>
<rect x="839.288" y="54" width="161.683" height="11" transform="rotate(41.4934 839.288 54)" fill="#BBAF8F"/>
<rect x="826.078" y="113.344" width="161.683" height="9.41757" transform="rotate(-42.9602 826.078 113.344)" fill="#BBAF8F"/>
<rect x="807" y="116.186" width="161.683" height="17.4483" transform="rotate(-42.9602 807 116.186)" fill="#BBAF8F"/>
<rect x="791" y="112.186" width="161.683" height="17.4483" transform="rotate(-42.9602 791 112.186)" fill="#BBAF8F"/>
<rect x="769" y="116.186" width="161.683" height="17.4483" transform="rotate(-42.9602 769 116.186)" fill="#BBAF8F"/>
<rect x="753.236" y="115.365" width="161.683" height="18.5693" transform="rotate(-42.9602 753.236 115.365)" fill="#BBAF8F"/>
<rect x="936.687" y="172.478" width="161.683" height="17.4483" transform="rotate(-139.906 936.687 172.478)" fill="#BBAF8F"/>
<rect x="917" y="174" width="131.784" height="17.1589" transform="rotate(-139.906 917 174)" fill="#BBAF8F"/>
<rect x="895" y="174" width="136.011" height="17.5218" transform="rotate(-139.906 895 174)" fill="#BBAF8F"/>
<rect x="872" y="174" width="147.283" height="18.4895" transform="rotate(-139.906 872 174)" fill="#BBAF8F"/>
</svg>
