<svg width="488" height="368" viewBox="0 0 488 368" fill="none" xmlns="http://www.w3.org/2000/svg">
<path d="M48.4432 258.38L71.529 279.871L103.07 280.079L89.7636 308.677L99.3124 338.738L68.0031 334.92L42.364 353.291L36.3198 322.334L10.9251 303.627L38.4989 288.312L48.4432 258.38Z" fill="#B34141"/>
<path d="M315.443 12.3797L339.821 30.6187L370.07 34.0794L360.256 62.9003L366.312 92.7377L335.87 92.311L309.364 107.291L300.363 78.2062L277.925 57.6269L302.805 40.0783L315.443 12.3797Z" fill="#B34141"/>
<path d="M57.9783 36.0736L63.9645 50.3531L76.7788 57.4358L66.0117 68.5164L63.4087 84.2521L50.7682 76.8208L36.3452 79.4632L39.2999 63.7898L32.989 49.6873L47.4557 47.4319L57.9783 36.0736Z" fill="#B34141"/>
<path d="M200.35 65.6951L211.801 76.5811L226.648 76.5678L221.169 91.2194L226.484 106.532L211.647 104.701L200.085 114.178L196.394 98.3949L183.933 88.9395L196.489 81.0158L200.35 65.6951Z" fill="#B34141"/>
<path d="M268.978 149.074L275.136 163.172L287.779 170.436L277.217 181.633L274.409 197.252L261.723 190.074L247.345 192.463L250.067 176.829L243.989 162.687L258.357 160.203L268.978 149.074Z" fill="#B34141"/>
<path d="M444.141 48.9822L457.315 56.9282L471.83 55.548L469.683 70.7904L476.42 85.159L461.919 86.6333L451.567 96.8937L444.752 82.5625L431.617 74.5352L441.906 64.2037L444.141 48.9822Z" fill="#B34141"/>
<path d="M143.659 109.712L155.1 139.509L184.465 152.018L159.662 172.107L156.839 203.9L130.068 186.519L98.9593 193.658L107.217 162.827L90.814 135.447L122.688 133.774L143.659 109.712Z" fill="#B34141"/>
</svg>
